# xmcd CD database file
# Copyright (C) 1995-1998 Ti Kan
#
# Track frame offsets:
#	151
#	14541
#	32515
#	48264
#	62361
#	82859
#	100750
#	116929
#	134018
#	153239
#	169458
#	188342
#
# Disc length: 2756 seconds
#
# Revision: 1
# Processed by: cddbd v1.4b41PL1 Copyright (c) Steve Scherf et al.
# Submitted via: CDex 1.30
#
DISCID=910ac20c
DTITLE=Wil Maring - The Turning of a Century
DYEAR=2001
DGENRE=Country
TTITLE0=The Turning of a Century
TTITLE1=Keeping Time with You
TTITLE2=Daisies and Poppies
TTITLE3=Reminds me of Missouri
TTITLE4=One in the Great White Yonder
TTITLE5=A Dance to the St. Anne's Reel
TTITLE6=Love doesn't come so easy
TTITLE7=Sunny Side of the Mountain
TTITLE8=The 28th of April
TTITLE9=Pardon Me
TTITLE10=Look for Me
TTITLE11=To the End of the Trail
EXTD=\nYEAR: 2001  ID3G:   2
EXTT0=
EXTT1=
EXTT2=
EXTT3=
EXTT4=
EXTT5=
EXTT6=
EXTT7=
EXTT8=
EXTT9=
EXTT10=
EXTT11=
PLAYORDER=
